<svg width="182" height="36" viewBox="0 0 182 36" fill="none" xmlns="http://www.w3.org/2000/svg">
<path d="M2 8.49275L16.5 2L31 8.49275V27.0435L16.5 34L2 27.0435V8.49275Z" fill="#28364A"/>
<path d="M2 8.49275L16.5 2L31 8.49275M2 8.49275V27.0435L16.5 34M2 8.49275L16.5 14.9855M31 8.49275V27.0435L16.5 34M31 8.49275L16.5 14.9855M16.5 34V14.9855" stroke="white" stroke-width="2.5" stroke-linecap="round"/>
<path d="M47.44 13.98C47.44 14.26 47.5 14.5 47.62 14.7C47.7533 14.9 47.9333 15.0733 48.16 15.22C48.3867 15.3667 48.6533 15.5067 48.96 15.64C49.28 15.76 49.6333 15.8867 50.02 16.02C50.5 16.1933 50.9733 16.3933 51.44 16.62C51.92 16.8333 52.3467 17.1067 52.72 17.44C53.1067 17.76 53.42 18.16 53.66 18.64C53.9 19.12 54.02 19.7 54.02 20.38C54.02 21.1 53.8867 21.7067 53.62 22.2C53.3667 22.6933 53.02 23.0933 52.58 23.4C52.14 23.6933 51.6333 23.9067 51.06 24.04C50.4867 24.1733 49.8933 24.24 49.28 24.24C48.4 24.24 47.5733 24.1333 46.8 23.92C46.04 23.7067 45.3867 23.4467 44.84 23.14L45.44 20.98C45.9467 21.3667 46.5067 21.6867 47.12 21.94C47.7467 22.1933 48.46 22.32 49.26 22.32C50.1133 22.32 50.7333 22.1733 51.12 21.88C51.5067 21.5733 51.7 21.1667 51.7 20.66C51.7 20.2733 51.6067 19.9467 51.42 19.68C51.2333 19.4 51 19.1667 50.72 18.98C50.44 18.78 50.14 18.62 49.82 18.5C49.5133 18.38 49.24 18.28 49 18.2C48.5733 18.0667 48.14 17.9067 47.7 17.72C47.26 17.5333 46.8533 17.2933 46.48 17C46.1067 16.6933 45.8 16.3133 45.56 15.86C45.3333 15.4067 45.22 14.84 45.22 14.16C45.22 13.52 45.3267 12.98 45.54 12.54C45.7667 12.1 46.0667 11.7467 46.44 11.48C46.8267 11.2 47.2733 11 47.78 10.88C48.3 10.76 48.86 10.7 49.46 10.7C50.1933 10.7 50.9 10.7733 51.58 10.92C52.2733 11.0667 52.8533 11.2467 53.32 11.46L52.78 13.58C52.54 13.42 52.28 13.28 52 13.16C51.72 13.04 51.4267 12.94 51.12 12.86C50.8267 12.78 50.5267 12.72 50.22 12.68C49.9267 12.6267 49.6467 12.6 49.38 12.6C48.78 12.6 48.3067 12.7133 47.96 12.94C47.6133 13.1667 47.44 13.5133 47.44 13.98ZM62.8998 24H60.5998V10.8H62.8998V24ZM79.0402 20.5V10.8H81.3402V24H78.5202L72.7202 14.32V24H70.4202V10.8H73.2402L79.0402 20.5ZM99.0938 22.9C98.4938 23.3 97.8071 23.6267 97.0338 23.88C96.2604 24.12 95.4138 24.24 94.4938 24.24C93.3871 24.24 92.4338 24.06 91.6338 23.7C90.8338 23.34 90.1671 22.8533 89.6338 22.24C89.1138 21.6267 88.7271 20.92 88.4738 20.12C88.2204 19.3067 88.0938 18.4467 88.0938 17.54C88.0938 16.5933 88.2338 15.7067 88.5138 14.88C88.7938 14.0533 89.2071 13.3333 89.7538 12.72C90.3138 12.0933 91.0071 11.6 91.8338 11.24C92.6604 10.88 93.6271 10.7 94.7338 10.7C95.4804 10.7 96.2204 10.78 96.9538 10.94C97.6871 11.0867 98.3404 11.2933 98.9138 11.56L98.2738 13.64C97.8204 13.3733 97.2938 13.1467 96.6938 12.96C96.0938 12.76 95.4138 12.66 94.6538 12.66C93.8938 12.66 93.2471 12.7733 92.7138 13C92.1938 13.2133 91.7738 13.5267 91.4538 13.94C91.1338 14.3533 90.9004 14.8533 90.7538 15.44C90.6071 16.0133 90.5338 16.6667 90.5338 17.4C90.5338 20.6533 91.9138 22.28 94.6738 22.28C95.1671 22.28 95.5604 22.24 95.8538 22.16C96.1471 22.08 96.4604 21.9867 96.7938 21.88V18.56H99.0938V22.9ZM108.298 22H113.798V24H105.998V10.8H108.298V22ZM126.24 18H122.24V22H127.98V24H119.94V10.8H127.58V12.8H122.24V16H126.24V18Z" fill="#0C0B25"/>
<path d="M137.861 10.8H137.941C138.368 10.7733 138.841 10.7533 139.361 10.74C139.881 10.7133 140.375 10.7 140.841 10.7C141.561 10.7 142.215 10.7933 142.801 10.98C143.388 11.1533 143.888 11.42 144.301 11.78C144.728 12.14 145.055 12.5867 145.281 13.12C145.521 13.64 145.641 14.2467 145.641 14.94C145.641 15.5 145.548 16.0267 145.361 16.52C145.175 17.0133 144.895 17.4467 144.521 17.82C144.148 18.1933 143.668 18.4933 143.081 18.72C142.508 18.9333 141.835 19.04 141.061 19.04C140.421 19.04 139.855 19.02 139.361 18.98V24H137.861V10.8ZM140.961 12.02C140.681 12.02 140.401 12.0267 140.121 12.04C139.855 12.04 139.601 12.0467 139.361 12.06V17.66C139.841 17.7 140.388 17.72 141.001 17.72C141.988 17.72 142.728 17.4733 143.221 16.98C143.728 16.4733 143.981 15.74 143.981 14.78C143.981 14.3667 143.928 13.9933 143.821 13.66C143.715 13.3133 143.541 13.02 143.301 12.78C143.075 12.54 142.768 12.3533 142.381 12.22C141.995 12.0867 141.521 12.02 140.961 12.02ZM152.447 10.8C152.914 10.7733 153.407 10.7533 153.927 10.74C154.461 10.7133 154.961 10.7 155.427 10.7C156.147 10.7 156.801 10.7867 157.387 10.96C157.974 11.12 158.474 11.36 158.887 11.68C159.314 12 159.641 12.4 159.867 12.88C160.107 13.3467 160.227 13.8867 160.227 14.5C160.227 15.3533 159.987 16.1133 159.507 16.78C159.027 17.4467 158.287 17.9133 157.287 18.18L162.347 24H160.487L155.547 18.36C154.961 18.36 154.427 18.34 153.947 18.3V24H152.447V10.8ZM155.547 12.02C155.267 12.02 154.987 12.0267 154.707 12.04C154.441 12.04 154.187 12.0467 153.947 12.06V17C154.187 17.0267 154.441 17.04 154.707 17.04C154.987 17.04 155.281 17.04 155.587 17.04C156.574 17.04 157.314 16.8133 157.807 16.36C158.314 15.8933 158.567 15.22 158.567 14.34C158.567 13.6467 158.341 13.0867 157.887 12.66C157.447 12.2333 156.667 12.02 155.547 12.02ZM173.824 10.7C174.864 10.7 175.784 10.88 176.584 11.24C177.384 11.6 178.058 12.0933 178.604 12.72C179.151 13.3333 179.564 14.0467 179.844 14.86C180.124 15.6733 180.264 16.5267 180.264 17.42C180.264 18.3 180.124 19.1533 179.844 19.98C179.578 20.7933 179.164 21.52 178.604 22.16C178.058 22.7867 177.371 23.2933 176.544 23.68C175.731 24.0533 174.778 24.24 173.684 24.24C172.618 24.24 171.691 24.06 170.904 23.7C170.118 23.34 169.464 22.8533 168.944 22.24C168.424 21.6267 168.031 20.92 167.764 20.12C167.511 19.3067 167.384 18.4533 167.384 17.56C167.384 16.6133 167.524 15.7267 167.804 14.9C168.098 14.06 168.518 13.3333 169.064 12.72C169.611 12.0933 170.284 11.6 171.084 11.24C171.884 10.88 172.798 10.7 173.824 10.7ZM173.724 22.92C174.591 22.92 175.331 22.78 175.944 22.5C176.571 22.22 177.078 21.8333 177.464 21.34C177.864 20.8467 178.158 20.2733 178.344 19.62C178.531 18.9533 178.624 18.24 178.624 17.48C178.624 16.6667 178.524 15.9267 178.324 15.26C178.138 14.5933 177.844 14.02 177.444 13.54C177.058 13.06 176.558 12.6867 175.944 12.42C175.331 12.1533 174.604 12.02 173.764 12.02C172.911 12.02 172.184 12.1533 171.584 12.42C170.984 12.6733 170.498 13.04 170.124 13.52C169.751 13.9867 169.478 14.5467 169.304 15.2C169.131 15.8533 169.044 16.5733 169.044 17.36C169.044 19.2 169.444 20.5867 170.244 21.52C171.044 22.4533 172.204 22.92 173.724 22.92Z" fill="#4F4E74"/>
</svg>
